<?xml version="1.0" encoding="utf-8"?>
<!-- Generator: Adobe Illustrator 26.0.2, SVG Export Plug-In . SVG Version: 6.00 Build 0)  -->
<svg version="1.1" id="Layer_1" xmlns="http://www.w3.org/2000/svg" xmlns:xlink="http://www.w3.org/1999/xlink" x="0px" y="0px"
	 viewBox="0 0 50 50" style="enable-background:new 0 0 50 50;" xml:space="preserve">
<style type="text/css">
	.st0{fill:#142850;}
	.st1{fill:#FFFFFF;}
</style>
<g>
	<path class="st0" d="M40,50H10C4.48,50,0,45.52,0,40V10C0,4.48,4.48,0,10,0h30c5.52,0,10,4.48,10,10v30C50,45.52,45.52,50,40,50z"
		/>
</g>
<g>
	<path class="st1" d="M36.4,39H13.6c-1.98,0-3.6-1.58-3.6-3.53V18.7c0-1.3,0.72-2.49,1.89-3.11l11.82-6.27
		c0.81-0.43,1.77-0.43,2.58,0l11.82,6.27C39.28,16.2,40,17.4,40,18.7v16.77C40,37.42,38.39,39,36.4,39z M25,10.94
		c-0.13,0-0.27,0.03-0.38,0.09L12.8,17.3c-0.53,0.28-0.86,0.82-0.86,1.4v16.77c0,0.88,0.75,1.6,1.66,1.6h22.8
		c0.92,0,1.66-0.72,1.66-1.6V18.7c0-0.58-0.33-1.12-0.86-1.4l-11.82-6.27C25.27,10.97,25.13,10.94,25,10.94z"/>
	<path class="st1" d="M25,34.6c-3.56,0-6.45-2.6-6.45-5.79c0-0.53,0.43-0.97,0.97-0.97c0.53,0,0.97,0.43,0.97,0.97
		c0,2.13,2.02,3.86,4.51,3.86s4.51-1.73,4.51-3.86c0-0.53,0.43-0.97,0.97-0.97c0.53,0,0.97,0.43,0.97,0.97
		C31.45,32.01,28.56,34.6,25,34.6z"/>
</g>
</svg>
