<?xml version="1.0" encoding="utf-8"?>
<!-- Generator: Adobe Illustrator 26.0.2, SVG Export Plug-In . SVG Version: 6.00 Build 0)  -->
<svg version="1.1" id="Layer_1" xmlns="http://www.w3.org/2000/svg" xmlns:xlink="http://www.w3.org/1999/xlink" x="0px" y="0px"
	 viewBox="0 0 200 30" style="enable-background:new 0 0 200 30;" xml:space="preserve">
<style type="text/css">
	.st0{fill:#FFFFFF;}
</style>
<g>
	<g>
		<path class="st0" d="M37,23.25c-0.43,0-0.76-0.12-0.98-0.36s-0.34-0.57-0.34-1v-9.56c0-0.43,0.11-0.76,0.34-0.99
			c0.23-0.23,0.55-0.35,0.98-0.35c0.87,0,1.31,0.45,1.31,1.34v4.02h0.03l4.51-4.71c0.19-0.2,0.39-0.36,0.6-0.47
			c0.21-0.11,0.45-0.16,0.72-0.16c0.38,0,0.67,0.1,0.85,0.31c0.18,0.2,0.26,0.44,0.24,0.72c-0.02,0.28-0.15,0.53-0.37,0.75
			l-3.99,4.07l4.22,4.49c0.26,0.28,0.39,0.57,0.4,0.86c0.01,0.29-0.09,0.54-0.29,0.74c-0.2,0.2-0.49,0.3-0.87,0.3
			c-0.33,0-0.59-0.07-0.79-0.2c-0.2-0.14-0.42-0.33-0.65-0.59l-4.58-4.82H38.3v4.26c0,0.43-0.11,0.76-0.33,1
			C37.75,23.13,37.43,23.25,37,23.25z"/>
		<path class="st0" d="M48.58,23.25c-0.86,0-1.29-0.44-1.29-1.31v-6.02c0-0.86,0.42-1.29,1.25-1.29c0.84,0,1.25,0.43,1.25,1.29V16
			c0.28-0.45,0.66-0.8,1.14-1.03c0.47-0.24,1.01-0.36,1.59-0.36c0.98,0,1.72,0.29,2.2,0.86c0.49,0.57,0.73,1.45,0.73,2.64v3.85
			c0,0.87-0.43,1.31-1.29,1.31c-0.41,0-0.72-0.11-0.94-0.34c-0.22-0.23-0.33-0.55-0.33-0.97v-3.73c0-0.58-0.11-0.99-0.32-1.25
			c-0.21-0.25-0.53-0.38-0.95-0.38c-0.54,0-0.98,0.17-1.3,0.51c-0.32,0.34-0.48,0.79-0.48,1.36v3.49
			C49.85,22.82,49.43,23.25,48.58,23.25z"/>
		<path class="st0" d="M61.55,23.29c-0.89,0-1.67-0.18-2.33-0.53c-0.66-0.36-1.17-0.86-1.53-1.51c-0.36-0.65-0.54-1.42-0.54-2.31
			c0-0.88,0.18-1.65,0.54-2.3c0.36-0.65,0.87-1.15,1.53-1.5c0.66-0.35,1.44-0.53,2.33-0.53c0.89,0,1.67,0.18,2.33,0.53
			c0.66,0.35,1.18,0.85,1.54,1.5c0.37,0.65,0.55,1.42,0.55,2.3c0,0.89-0.18,1.66-0.55,2.31c-0.37,0.65-0.88,1.15-1.54,1.51
			C63.22,23.11,62.45,23.29,61.55,23.29z M61.55,21.37c0.54,0,0.99-0.2,1.33-0.59c0.34-0.4,0.52-1.01,0.52-1.85
			c0-0.83-0.17-1.43-0.52-1.82c-0.34-0.39-0.79-0.58-1.33-0.58c-0.54,0-0.98,0.2-1.32,0.58c-0.34,0.39-0.51,1-0.51,1.82
			c0,0.84,0.17,1.45,0.51,1.85C60.57,21.17,61.01,21.37,61.55,21.37z"/>
		<path class="st0" d="M70.93,23.25c-0.69,0-1.17-0.34-1.44-1.03L67.1,16.3c-0.18-0.46-0.18-0.86,0.01-1.18
			c0.19-0.32,0.54-0.48,1.06-0.48c0.29,0,0.53,0.07,0.72,0.21c0.19,0.14,0.35,0.41,0.5,0.81l1.66,4.46l1.75-4.68
			c0.19-0.53,0.55-0.8,1.09-0.8s0.9,0.27,1.1,0.8l1.73,4.75l1.7-4.6c0.14-0.36,0.31-0.61,0.52-0.75s0.44-0.2,0.7-0.2
			c0.49,0,0.8,0.17,0.95,0.51c0.15,0.34,0.13,0.72-0.05,1.15l-2.37,5.92c-0.27,0.69-0.75,1.03-1.44,1.03
			c-0.69,0-1.17-0.34-1.44-1.03l-1.48-3.85l-1.44,3.83C72.1,22.9,71.62,23.25,70.93,23.25z"/>
		<path class="st0" d="M91.55,23.25c-0.43,0-0.76-0.12-0.98-0.36c-0.23-0.24-0.34-0.58-0.34-1.02v-4.17l-3.46-4.92
			c-0.16-0.24-0.23-0.49-0.2-0.77c0.02-0.28,0.14-0.52,0.34-0.72c0.2-0.2,0.49-0.31,0.86-0.31c0.53,0,0.99,0.28,1.37,0.85l2.44,3.53
			l2.44-3.53c0.21-0.31,0.43-0.52,0.64-0.65c0.21-0.13,0.45-0.2,0.74-0.2c0.36,0,0.64,0.09,0.84,0.28c0.2,0.19,0.31,0.42,0.32,0.7
			c0.02,0.28-0.08,0.56-0.28,0.86l-3.43,4.9v4.15C92.86,22.8,92.42,23.25,91.55,23.25z"/>
		<path class="st0" d="M100.61,23.29c-0.89,0-1.67-0.18-2.33-0.53c-0.66-0.36-1.17-0.86-1.53-1.51c-0.36-0.65-0.54-1.42-0.54-2.31
			c0-0.88,0.18-1.65,0.54-2.3c0.36-0.65,0.87-1.15,1.53-1.5c0.66-0.35,1.44-0.53,2.33-0.53s1.67,0.18,2.33,0.53
			c0.66,0.35,1.18,0.85,1.54,1.5c0.37,0.65,0.55,1.42,0.55,2.3c0,0.89-0.18,1.66-0.55,2.31c-0.37,0.65-0.88,1.15-1.54,1.51
			C102.28,23.11,101.5,23.29,100.61,23.29z M100.61,21.37c0.54,0,0.99-0.2,1.33-0.59c0.34-0.4,0.52-1.01,0.52-1.85
			c0-0.83-0.17-1.43-0.52-1.82c-0.34-0.39-0.79-0.58-1.33-0.58s-0.98,0.2-1.32,0.58c-0.34,0.39-0.51,1-0.51,1.82
			c0,0.84,0.17,1.45,0.51,1.85C99.63,21.17,100.07,21.37,100.61,21.37z"/>
		<path class="st0" d="M109.83,23.29c-1.06,0-1.85-0.29-2.35-0.88c-0.5-0.59-0.75-1.47-0.75-2.65v-3.83c0-0.86,0.42-1.29,1.27-1.29
			c0.86,0,1.29,0.43,1.29,1.29v3.9c0,0.98,0.42,1.48,1.27,1.48c0.49,0,0.88-0.17,1.2-0.52c0.31-0.34,0.47-0.8,0.47-1.37v-3.49
			c0-0.86,0.42-1.29,1.27-1.29c0.86,0,1.29,0.43,1.29,1.29v6.02c0,0.87-0.41,1.31-1.24,1.31c-0.41,0-0.72-0.11-0.93-0.34
			c-0.21-0.23-0.32-0.54-0.32-0.95C111.74,22.85,110.92,23.29,109.83,23.29z"/>
		<path class="st0" d="M118.26,23.25c-0.88,0-1.32-0.44-1.32-1.31v-6.02c0-0.86,0.42-1.29,1.25-1.29c0.84,0,1.25,0.43,1.25,1.29
			v0.31c0.41-1.01,1.25-1.55,2.53-1.63c0.28-0.02,0.5,0.05,0.65,0.21c0.15,0.16,0.23,0.43,0.25,0.81c0.02,0.35-0.05,0.63-0.21,0.83
			c-0.16,0.2-0.44,0.33-0.82,0.37l-0.39,0.03c-1.27,0.12-1.9,0.77-1.9,1.93v3.15C119.55,22.82,119.12,23.25,118.26,23.25z"/>
		<path class="st0" d="M130.54,23.25c-0.43,0-0.76-0.12-0.98-0.36s-0.34-0.57-0.34-1v-9.41c0-0.89,0.45-1.34,1.34-1.34h4.12
			c1.33,0,2.36,0.34,3.09,1.01c0.72,0.67,1.09,1.61,1.09,2.81c0,1.2-0.36,2.14-1.09,2.82c-0.72,0.68-1.75,1.02-3.09,1.02h-2.83v3.1
			c0,0.43-0.11,0.76-0.33,1C131.3,23.13,130.97,23.25,130.54,23.25z M131.85,16.76h2.39c1.39,0,2.09-0.6,2.09-1.8
			c0-1.18-0.7-1.76-2.09-1.76h-2.39V16.76z"/>
		<path class="st0" d="M141.58,23.25c-0.88,0-1.32-0.44-1.32-1.31v-6.02c0-0.86,0.42-1.29,1.25-1.29c0.84,0,1.25,0.43,1.25,1.29
			v0.31c0.41-1.01,1.25-1.55,2.53-1.63c0.28-0.02,0.5,0.05,0.65,0.21c0.15,0.16,0.23,0.43,0.25,0.81c0.02,0.35-0.05,0.63-0.21,0.83
			c-0.16,0.2-0.44,0.33-0.82,0.37l-0.39,0.03c-1.27,0.12-1.9,0.77-1.9,1.93v3.15C142.87,22.82,142.44,23.25,141.58,23.25z"/>
		<path class="st0" d="M151.26,23.29c-0.89,0-1.67-0.18-2.33-0.53c-0.66-0.36-1.17-0.86-1.53-1.51c-0.36-0.65-0.54-1.42-0.54-2.31
			c0-0.88,0.18-1.65,0.54-2.3c0.36-0.65,0.87-1.15,1.53-1.5c0.66-0.35,1.44-0.53,2.33-0.53c0.89,0,1.67,0.18,2.33,0.53
			c0.66,0.35,1.18,0.85,1.54,1.5c0.37,0.65,0.55,1.42,0.55,2.3c0,0.89-0.18,1.66-0.55,2.31c-0.37,0.65-0.88,1.15-1.54,1.51
			C152.93,23.11,152.16,23.29,151.26,23.29z M151.26,21.37c0.54,0,0.99-0.2,1.33-0.59c0.34-0.4,0.52-1.01,0.52-1.85
			c0-0.83-0.17-1.43-0.52-1.82c-0.35-0.39-0.79-0.58-1.33-0.58s-0.98,0.2-1.32,0.58c-0.34,0.39-0.51,1-0.51,1.82
			c0,0.84,0.17,1.45,0.51,1.85C150.28,21.17,150.72,21.37,151.26,21.37z"/>
		<path class="st0" d="M158.71,26.31c-0.86,0-1.29-0.44-1.29-1.31v-9.07c0-0.86,0.42-1.29,1.25-1.29c0.85,0,1.27,0.43,1.27,1.29
			v0.05c0.24-0.42,0.59-0.75,1.05-1c0.46-0.25,0.98-0.37,1.56-0.37c0.72,0,1.36,0.18,1.91,0.53c0.55,0.35,0.97,0.85,1.28,1.49
			c0.31,0.64,0.46,1.41,0.46,2.31c0,0.89-0.15,1.66-0.46,2.31c-0.31,0.65-0.73,1.15-1.28,1.51c-0.55,0.36-1.18,0.53-1.91,0.53
			c-0.55,0-1.06-0.12-1.52-0.36c-0.46-0.24-0.81-0.55-1.06-0.95V25C159.98,25.87,159.56,26.31,158.71,26.31z M161.8,21.37
			c0.54,0,0.98-0.2,1.32-0.59c0.34-0.4,0.51-1.01,0.51-1.85c0-0.83-0.17-1.43-0.51-1.82c-0.34-0.39-0.78-0.58-1.32-0.58
			c-0.55,0-1,0.2-1.34,0.58c-0.34,0.39-0.51,1-0.51,1.82c0,0.84,0.17,1.45,0.51,1.85C160.79,21.17,161.24,21.37,161.8,21.37z"/>
		<path class="st0" d="M172.26,23.29c-0.98,0-1.83-0.18-2.54-0.53c-0.71-0.36-1.25-0.86-1.63-1.51c-0.38-0.65-0.57-1.42-0.57-2.3
			c0-0.86,0.18-1.61,0.55-2.26c0.37-0.65,0.87-1.16,1.51-1.53c0.64-0.37,1.38-0.55,2.21-0.55c1.21,0,2.17,0.38,2.88,1.14
			c0.71,0.76,1.07,1.79,1.07,3.09c0,0.43-0.27,0.64-0.8,0.64h-4.99c0.09,0.66,0.33,1.13,0.72,1.43c0.39,0.3,0.93,0.45,1.62,0.45
			c0.27,0,0.58-0.03,0.92-0.09c0.34-0.06,0.68-0.17,0.99-0.33c0.33-0.16,0.6-0.19,0.83-0.09c0.23,0.1,0.38,0.26,0.47,0.48
			c0.09,0.23,0.09,0.46,0,0.7c-0.08,0.24-0.27,0.44-0.57,0.6c-0.4,0.21-0.83,0.38-1.31,0.48C173.16,23.23,172.7,23.29,172.26,23.29z
			 M171.9,16.3c-0.54,0-0.98,0.16-1.31,0.49c-0.33,0.33-0.54,0.79-0.62,1.37h3.66C173.56,16.92,172.99,16.3,171.9,16.3z"/>
		<path class="st0" d="M178.74,23.25c-0.88,0-1.32-0.44-1.32-1.31v-6.02c0-0.86,0.42-1.29,1.25-1.29c0.84,0,1.25,0.43,1.25,1.29
			v0.31c0.41-1.01,1.25-1.55,2.53-1.63c0.28-0.02,0.5,0.05,0.65,0.21c0.15,0.16,0.23,0.43,0.25,0.81c0.02,0.35-0.05,0.63-0.21,0.83
			c-0.16,0.2-0.44,0.33-0.82,0.37l-0.39,0.03c-1.27,0.12-1.9,0.77-1.9,1.93v3.15C180.03,22.82,179.6,23.25,178.74,23.25z"/>
		<path class="st0" d="M189.15,23.29c-2.34,0-3.51-1.14-3.51-3.41v-3.19h-0.71c-0.67,0-1-0.32-1-0.95c0-0.64,0.33-0.97,1-0.97h0.71
			v-1.29c0-0.87,0.43-1.31,1.29-1.31c0.85,0,1.27,0.44,1.27,1.31v1.29h1.61c0.66,0,0.98,0.32,0.98,0.97c0,0.63-0.33,0.95-0.98,0.95
			h-1.61v3.09c0,0.47,0.11,0.83,0.33,1.07c0.22,0.24,0.57,0.36,1.06,0.36c0.17,0,0.33-0.02,0.47-0.05c0.15-0.03,0.28-0.06,0.41-0.07
			c0.16-0.01,0.29,0.04,0.39,0.15c0.1,0.11,0.15,0.35,0.15,0.7c0,0.28-0.05,0.52-0.14,0.72c-0.09,0.2-0.25,0.34-0.47,0.43
			c-0.15,0.06-0.35,0.1-0.6,0.14C189.55,23.27,189.33,23.29,189.15,23.29z"/>
		<path class="st0" d="M194.51,26.31c-0.45,0-0.77-0.17-0.96-0.5c-0.19-0.33-0.18-0.72,0.03-1.16l0.9-2l-2.76-6.34
			c-0.18-0.44-0.18-0.83,0.01-1.16c0.19-0.33,0.56-0.5,1.13-0.5c0.31,0,0.55,0.07,0.74,0.21c0.19,0.14,0.36,0.41,0.52,0.81
			l1.73,4.41l1.8-4.43c0.16-0.38,0.34-0.65,0.53-0.79c0.2-0.14,0.47-0.21,0.81-0.21c0.43,0,0.73,0.17,0.91,0.5
			c0.18,0.33,0.17,0.72-0.03,1.14l-3.99,9.04c-0.17,0.38-0.36,0.64-0.57,0.78C195.09,26.24,194.82,26.31,194.51,26.31z"/>
	</g>
	<g>
		<path class="st0" d="M23.22,28.19H3.16C1.42,28.19,0,26.8,0,25.08V10.34C0,9.19,0.64,8.15,1.66,7.6l10.39-5.51
			c0.71-0.38,1.56-0.38,2.27,0L24.72,7.6c1.02,0.54,1.66,1.59,1.66,2.73v14.75C26.38,26.8,24.96,28.19,23.22,28.19z M13.19,3.51
			c-0.12,0-0.23,0.03-0.34,0.08L2.46,9.11C1.99,9.35,1.7,9.82,1.7,10.34v14.75c0,0.77,0.66,1.4,1.46,1.4h20.05
			c0.81,0,1.46-0.63,1.46-1.4V10.34c0-0.51-0.29-0.98-0.76-1.23L13.53,3.6C13.42,3.54,13.31,3.51,13.19,3.51z"/>
		<path class="st0" d="M13.19,24.32c-3.13,0-5.67-2.28-5.67-5.09c0-0.47,0.38-0.85,0.85-0.85c0.47,0,0.85,0.38,0.85,0.85
			c0,1.87,1.78,3.39,3.97,3.39s3.97-1.52,3.97-3.39c0-0.47,0.38-0.85,0.85-0.85s0.85,0.38,0.85,0.85
			C18.86,22.04,16.32,24.32,13.19,24.32z"/>
	</g>
</g>
</svg>
